<svg width="62" height="76" viewBox="0 0 62 76" fill="none" xmlns="http://www.w3.org/2000/svg">
<path d="M53.4811 17.7331C51.8571 17.0146 51.4251 16.6124 51.4251 15.7169C51.4251 14.5747 52.3875 14.1511 53.328 14.1511C54.1372 14.1511 55.1269 14.3495 55.9908 14.6981L56.4938 12.5853C55.6081 12.21 54.4926 11.9901 53.2459 11.9901C51.0916 11.9901 48.8607 13.1591 48.8607 15.8456C48.8607 17.7868 50.0527 18.8324 52.1633 19.7494C53.7873 20.4679 54.4434 21.0202 54.4434 22.0123C54.4434 23.1276 53.6013 23.5512 52.464 23.5512C51.4744 23.5512 50.337 23.326 49.2161 22.881L48.7295 25.042C49.8449 25.4656 51.2939 25.7123 52.4586 25.7123C54.6402 25.7123 56.9969 24.7149 56.9969 21.8568C57.0078 19.6475 55.6135 18.7037 53.4811 17.7331Z" fill="black"/>
<path d="M43.2451 11.9847C39.8878 11.9847 38.1709 15.0198 38.1709 18.8753C38.1709 22.8541 40.1284 25.7176 44.0434 25.7176C45.126 25.7176 46.143 25.5192 46.7992 25.2725L46.5039 23.1812C45.7548 23.4547 44.9784 23.5512 44.1855 23.5512C42.0859 23.5512 40.8064 22.1839 40.6588 19.6743H47.8053V18.5804C47.8053 14.6444 46.575 11.9847 43.2451 11.9847ZM45.3939 17.6044H40.6588C40.8283 15.5882 41.5774 14.0224 43.1959 14.0224C44.7159 14.0224 45.3939 15.4863 45.3939 17.4811V17.6044Z" fill="black"/>
<path d="M34.4747 17.2666V17.2184C35.9674 16.6499 36.8368 15.2557 36.8368 13.2878C36.8368 9.97387 34.7973 8.74054 32.4352 8.74054H27.5032V25.6533H29.8598V18.4517H31.3361C33.1023 18.4517 33.5123 19.0415 33.9498 20.9881C34.1794 22.0981 34.6387 24.3717 34.9176 25.6533H37.4875C37.05 23.8301 36.6892 22.2214 36.2736 20.3714C35.8143 18.3337 35.3988 17.5991 34.4747 17.2666ZM31.7736 16.1995H29.8653V10.9927H31.8228C33.1296 10.9927 34.4419 11.4217 34.4419 13.572C34.4364 15.4917 33.2882 16.1995 31.7736 16.1995Z" fill="black"/>
<path d="M25.4528 15.8777H22.7407V18.4409H25.4528V15.8777Z" fill="black"/>
<path d="M20.6958 8.74054H18.2681V11.175H20.6958V8.74054Z" fill="black"/>
<path d="M20.6848 13.5184H18.2571V25.6479H20.6848V13.5184Z" fill="black"/>
<path d="M13.2539 15.8724H7.86264V8.74054H5.42944V25.6533H7.86264V18.1192H13.2539V25.6533H15.6871V8.74054H13.2539V15.8724Z" fill="black"/>
<path d="M30.9972 36.5334C20.6465 36.5334 10.8973 34.0399 2.32373 29.6428V58.5242H59.6706V29.6428C51.097 34.0399 41.3423 36.5334 30.9972 36.5334ZM13.0189 53.1512L12.1003 50.395H8.09232L7.18465 53.1512H4.92643L8.67738 41.826H11.5863L15.3099 53.1512H13.0189ZM25.9449 49.8051C25.9449 52.1055 24.1569 53.3442 21.7784 53.3442C19.4217 53.3442 17.6392 52.1055 17.6392 49.8051V41.826H19.7607V49.5209C19.7607 50.9044 20.6028 51.4835 21.762 51.4835C22.9102 51.4835 23.8179 50.8776 23.8179 49.5209V41.826H25.9394V49.8051H25.9449ZM33.0476 53.1512H29.5154V41.826H33.0476C36.4705 41.826 38.2967 43.9495 38.2967 47.4457C38.2967 50.9419 36.4595 53.1512 33.0476 53.1512ZM43.7373 53.1512H41.6103V41.826H43.7373V53.1512ZM51.939 53.3442C48.8114 53.3442 47.0672 50.899 47.0672 47.5047C47.0672 44.0996 48.7841 41.6383 51.939 41.6383C55.1213 41.6383 56.8218 44.0996 56.8218 47.5047C56.8218 50.899 55.094 53.3442 51.939 53.3442Z" fill="black"/>
<path d="M8.57886 48.5235H11.5971L10.0935 43.6277L8.57886 48.5235Z" fill="black"/>
<path d="M32.7469 43.6867H31.637V51.2958H32.7469C35.1145 51.2958 36.1698 49.7783 36.1698 47.4779C36.1753 45.2042 35.12 43.6867 32.7469 43.6867Z" fill="black"/>
<path d="M51.939 43.4937C50.058 43.4937 49.1941 45.2793 49.1941 47.5047C49.1941 49.7139 50.0744 51.4835 51.9663 51.4835C53.8746 51.4835 54.7002 49.7139 54.7002 47.5047C54.7002 45.2793 53.8363 43.4937 51.939 43.4937Z" fill="black"/>
<path d="M61.6337 0.359275L62 0H0L0.366346 0.359275H61.6337Z" fill="url(#paint0_linear_131_1580)"/>
<path d="M2.32373 29.6429C10.8973 34.0399 20.6465 36.5334 30.9972 36.5334C41.3423 36.5334 51.0915 34.0399 59.6706 29.6429V28.8814C51.097 33.2785 41.3423 35.772 30.9972 35.772C20.6465 35.772 10.8973 33.2785 2.32373 28.8814V29.6429Z" fill="url(#paint1_linear_131_1580)"/>
<path d="M62 0H0V60.8032H62V0Z" fill="url(#paint2_linear_131_1580)"/>
<path d="M53.4811 17.7331C51.8571 17.0146 51.4251 16.6124 51.4251 15.7169C51.4251 14.5747 52.3875 14.1511 53.328 14.1511C54.1372 14.1511 55.1269 14.3495 55.9908 14.6981L56.4938 12.5853C55.6081 12.21 54.4926 11.9901 53.2459 11.9901C51.0916 11.9901 48.8607 13.1591 48.8607 15.8456C48.8607 17.7868 50.0527 18.8324 52.1633 19.7494C53.7873 20.4679 54.4434 21.0202 54.4434 22.0123C54.4434 23.133 53.6013 23.5512 52.464 23.5512C51.4744 23.5512 50.337 23.326 49.2161 22.881L48.7295 25.042C49.8504 25.4656 51.2939 25.7123 52.4586 25.7123C54.6402 25.7123 56.9969 24.7149 56.9969 21.8568C57.0078 19.6475 55.6135 18.7037 53.4811 17.7331Z" fill="black"/>
<path d="M43.2451 11.9847C39.8878 11.9847 38.1709 15.0198 38.1709 18.8753C38.1709 22.8541 40.1284 25.7176 44.0434 25.7176C45.126 25.7176 46.143 25.5192 46.7992 25.2725L46.5039 23.1812C45.7548 23.4547 44.9784 23.5512 44.1855 23.5512C42.0859 23.5512 40.8064 22.1839 40.6588 19.6743H47.8053V18.5804C47.8053 14.6444 46.575 11.9847 43.2451 11.9847ZM45.3939 17.6044H40.6588C40.8283 15.5882 41.5774 14.0224 43.1959 14.0224C44.7159 14.0224 45.3939 15.4863 45.3939 17.4811V17.6044Z" fill="black"/>
<path d="M34.4747 17.2666V17.2184C35.9674 16.6499 36.8368 15.2557 36.8368 13.2878C36.8368 9.97387 34.7973 8.74054 32.4352 8.74054H27.5032V25.6533H29.8598V18.4517H31.3361C33.1023 18.4517 33.5123 19.0415 33.9498 20.9881C34.1794 22.0981 34.6387 24.3717 34.9176 25.6533H37.4875C37.05 23.8301 36.6892 22.2214 36.2736 20.3714C35.8143 18.3337 35.3988 17.5991 34.4747 17.2666ZM31.7736 16.1995H29.8653V10.9927H31.8228C33.1296 10.9927 34.4419 11.4217 34.4419 13.572C34.4364 15.4917 33.2882 16.1995 31.7736 16.1995Z" fill="black"/>
<path d="M25.4528 15.8777H22.7407V18.4409H25.4528V15.8777Z" fill="black"/>
<path d="M20.6958 8.74054H18.2681V11.175H20.6958V8.74054Z" fill="black"/>
<path d="M20.6848 13.5184H18.2571V25.6479H20.6848V13.5184Z" fill="black"/>
<path d="M13.2539 15.8724H7.86264V8.74054H5.42944V25.6533H7.86264V18.1192H13.2539V25.6533H15.6871V8.74054H13.2539V15.8724Z" fill="black"/>
<path d="M30.9972 36.5334C20.6465 36.5334 10.8973 34.0399 2.32373 29.6428V58.5242H59.6706V29.6428C51.097 34.0399 41.3423 36.5334 30.9972 36.5334ZM13.0189 53.1512L12.1003 50.395H8.09232L7.18465 53.1512H4.92643L8.67738 41.826H11.5863L15.3099 53.1512H13.0189ZM25.9449 49.8051C25.9449 52.1055 24.1569 53.3442 21.7784 53.3442C19.4217 53.3442 17.6392 52.1055 17.6392 49.8051V41.826H19.7607V49.5209C19.7607 50.9044 20.6028 51.4835 21.762 51.4835C22.9102 51.4835 23.8179 50.8776 23.8179 49.5209V41.826H25.9394V49.8051H25.9449ZM33.0476 53.1512H29.5154V41.826H33.0476C36.4705 41.826 38.2967 43.9495 38.2967 47.4457C38.2967 50.9419 36.4595 53.1512 33.0476 53.1512ZM43.7373 53.1512H41.6103V41.826H43.7373V53.1512ZM51.939 53.3442C48.8114 53.3442 47.0672 50.899 47.0672 47.5047C47.0672 44.0996 48.7841 41.6383 51.939 41.6383C55.1213 41.6383 56.8218 44.0996 56.8218 47.5047C56.8218 50.899 55.094 53.3442 51.939 53.3442Z" fill="black"/>
<path d="M8.57886 48.5235H11.5971L10.0935 43.6277L8.57886 48.5235Z" fill="black"/>
<path d="M32.7469 43.6867H31.637V51.2958H32.7469C35.1145 51.2958 36.1698 49.7783 36.1698 47.4779C36.1753 45.2042 35.12 43.6867 32.7469 43.6867Z" fill="black"/>
<path d="M51.939 43.4937C50.058 43.4937 49.1941 45.2793 49.1941 47.5047C49.1941 49.7139 50.0744 51.4835 51.9663 51.4835C53.8746 51.4835 54.7002 49.7139 54.7002 47.5047C54.7002 45.2793 53.8363 43.4937 51.939 43.4937Z" fill="black"/>
<path d="M0.366346 60.444L0 60.8032H62L61.6337 60.444H0.366346Z" fill="#6D3F00"/>
<path d="M61.6335 60.4439L61.9999 60.8032V0L61.6335 0.359275V60.4439Z" fill="url(#paint3_linear_131_1580)"/>
<path d="M0.366346 0.359275L0 0V60.8032L0.366346 60.4386V0.359275Z" fill="url(#paint4_linear_131_1580)"/>
<path d="M61.6337 0.359275L62 0H0L0.366346 0.359275H61.6337Z" fill="url(#paint5_linear_131_1580)"/>
<path d="M2.32373 29.6429C10.8973 34.0399 20.6465 36.5334 30.9972 36.5334C41.3423 36.5334 51.0915 34.0399 59.6706 29.6429V28.8814C51.097 33.2785 41.3423 35.772 30.9972 35.772C20.6465 35.772 10.8973 33.2785 2.32373 28.8814V29.6429Z" fill="url(#paint6_linear_131_1580)"/>
<defs>
<linearGradient id="paint0_linear_131_1580" x1="0.0010637" y1="0.181192" x2="61.9987" y2="0.181192" gradientUnits="userSpaceOnUse">
<stop stop-color="#F9E992"/>
<stop offset="1" stop-color="#D69D00"/>
</linearGradient>
<linearGradient id="paint1_linear_131_1580" x1="2.32477" y1="32.7077" x2="59.6705" y2="32.7077" gradientUnits="userSpaceOnUse">
<stop stop-color="#4A2000"/>
<stop offset="0.04" stop-color="#6B3A00"/>
<stop offset="0.0808" stop-color="#834D00"/>
<stop offset="0.1214" stop-color="#955A00"/>
<stop offset="0.1614" stop-color="#9F6100"/>
<stop offset="0.2" stop-color="#A26400"/>
<stop offset="0.2458" stop-color="#AA6B00"/>
<stop offset="0.3205" stop-color="#BD7E00"/>
<stop offset="0.4142" stop-color="#DC9E00"/>
<stop offset="0.5" stop-color="#FABF13"/>
<stop offset="0.5343" stop-color="#FBC625"/>
<stop offset="0.59" stop-color="#FED849"/>
<stop offset="0.6" stop-color="#FFDB4F"/>
<stop offset="0.6388" stop-color="#F9D248"/>
<stop offset="0.7021" stop-color="#E6B835"/>
<stop offset="0.7815" stop-color="#C68F14"/>
<stop offset="0.85" stop-color="#A56800"/>
<stop offset="0.8861" stop-color="#A16500"/>
<stop offset="0.9236" stop-color="#975D00"/>
<stop offset="0.9616" stop-color="#854E0F"/>
<stop offset="0.9998" stop-color="#6D3A13"/>
<stop offset="1" stop-color="#6D3A13"/>
</linearGradient>
<linearGradient id="paint2_linear_131_1580" x1="16.4306" y1="-0.239587" x2="38.4753" y2="47.9658" gradientUnits="userSpaceOnUse">
<stop stop-color="#FFFCD1"/>
<stop offset="0.2" stop-color="#FFF096"/>
<stop offset="0.6" stop-color="#FCC80E"/>
<stop offset="0.6094" stop-color="#FBC70C"/>
<stop offset="0.7616" stop-color="#EFB000"/>
<stop offset="0.8967" stop-color="#E7A200"/>
<stop offset="1" stop-color="#E49D00"/>
</linearGradient>
<linearGradient id="paint3_linear_131_1580" x1="61.815" y1="60.8009" x2="61.815" y2="0" gradientUnits="userSpaceOnUse">
<stop stop-color="#A26400"/>
<stop offset="0.4923" stop-color="#A36500"/>
<stop offset="0.6696" stop-color="#A56800"/>
<stop offset="0.796" stop-color="#A96D00"/>
<stop offset="0.898" stop-color="#AF7519"/>
<stop offset="0.9845" stop-color="#B67F2F"/>
<stop offset="1" stop-color="#B88134"/>
</linearGradient>
<linearGradient id="paint4_linear_131_1580" x1="0.184267" y1="0.000523361" x2="0.184267" y2="60.8009" gradientUnits="userSpaceOnUse">
<stop stop-color="#EDCF70"/>
<stop offset="1" stop-color="#A36B00"/>
</linearGradient>
<linearGradient id="paint5_linear_131_1580" x1="0.00110561" y1="0.181192" x2="61.9988" y2="0.181192" gradientUnits="userSpaceOnUse">
<stop stop-color="#F9E992"/>
<stop offset="1" stop-color="#D69D00"/>
</linearGradient>
<linearGradient id="paint6_linear_131_1580" x1="2.32482" y1="32.7077" x2="59.6706" y2="32.7077" gradientUnits="userSpaceOnUse">
<stop stop-color="#4A2000"/>
<stop offset="0.04" stop-color="#6B3A00"/>
<stop offset="0.0808" stop-color="#834D00"/>
<stop offset="0.1214" stop-color="#955A00"/>
<stop offset="0.1614" stop-color="#9F6100"/>
<stop offset="0.2" stop-color="#A26400"/>
<stop offset="0.2458" stop-color="#AA6B00"/>
<stop offset="0.3205" stop-color="#BD7E00"/>
<stop offset="0.4142" stop-color="#DC9E00"/>
<stop offset="0.5" stop-color="#FABF13"/>
<stop offset="0.5343" stop-color="#FBC625"/>
<stop offset="0.59" stop-color="#FED849"/>
<stop offset="0.6" stop-color="#FFDB4F"/>
<stop offset="0.6388" stop-color="#F9D248"/>
<stop offset="0.7021" stop-color="#E6B835"/>
<stop offset="0.7815" stop-color="#C68F14"/>
<stop offset="0.85" stop-color="#A56800"/>
<stop offset="0.8861" stop-color="#A16500"/>
<stop offset="0.9236" stop-color="#975D00"/>
<stop offset="0.9616" stop-color="#854E0F"/>
<stop offset="0.9998" stop-color="#6D3A13"/>
<stop offset="1" stop-color="#6D3A13"/>
</linearGradient>
</defs>
</svg>
